<?xml version="1.0" encoding="UTF-8" standalone="no"?>
<!-- Created with Inkscape (http://www.inkscape.org/) -->

<svg
   version="1.1"
   id="svg2"
   width="888.74939"
   height="947.35236"
   viewBox="0 0 888.74936 947.35233"
   sodipodi:docname="avatar.svg"
   inkscape:version="1.2.2 (b0a8486541, 2022-12-01)"
   inkscape:export-filename="avatar.png"
   inkscape:export-xdpi="96"
   inkscape:export-ydpi="96"
   xml:space="preserve"
   xmlns:inkscape="http://www.inkscape.org/namespaces/inkscape"
   xmlns:sodipodi="http://sodipodi.sourceforge.net/DTD/sodipodi-0.dtd"
   xmlns="http://www.w3.org/2000/svg"
   xmlns:svg="http://www.w3.org/2000/svg"><defs
     id="defs6" /><sodipodi:namedview
     id="namedview4"
     pagecolor="#ffffff"
     bordercolor="#000000"
     borderopacity="0.25"
     inkscape:showpageshadow="2"
     inkscape:pageopacity="0.0"
     inkscape:pagecheckerboard="0"
     inkscape:deskcolor="#d1d1d1"
     showgrid="false"
     inkscape:zoom="0.22189158"
     inkscape:cx="-56.333819"
     inkscape:cy="475.45743"
     inkscape:window-width="1214"
     inkscape:window-height="651"
     inkscape:window-x="66"
     inkscape:window-y="32"
     inkscape:window-maximized="1"
     inkscape:current-layer="g8" /><g
     inkscape:groupmode="layer"
     inkscape:label="Image"
     id="g8"
     transform="translate(-1335.5579,-185.69969)"><path
       style="fill:#000000"
       d="m -0.0018,1415.8001 v -72.5615 l 4.4831,-33.6885 c 11.9449,-89.7597 22.3869,-156.4859 29.9976,-191.6885 6.918,-31.9985 20.2251,-81.8292 25.2358,-94.5 13.4967,-34.12942 34.3398,-59.74092 54.1815,-66.57692 2.1653,-0.746 17.5865,-7.4039 34.2695,-14.7952 16.6829,-7.3913 44.5075,-19.3727 61.8325,-26.6252 67.1005,-28.0893 92.5228,-39.8164 112,-51.6647 24.1105,-14.667 27.5168,-16.951 31.0769,-20.83805 6.8647,-7.49511 22.4094,-24.73306 27.6585,-30.67129 2.8795,-3.2575 6.3436,-7.81408 7.698,-10.12572 2.9388,-5.01568 5.5697,-14.55888 5.5587,-20.16309 -0.01,-3.82232 -0.391,-4.33611 -7.1187,-9.5399 -9.1125,-7.0483 -30.1783,-29.70886 -41.8291,-44.99562 -21.2354,-27.86259 -43.2032,-64.5464 -51.0957,-85.32454 -4.3977,-11.57739 -9.9509,-34.33022 -12.8247,-52.54555 -1.7142,-10.86569 -2.3798,-12.98852 -5.4867,-17.5 -10.9799,-15.94359 -22.9285,-52.53944 -27.3181,-83.66932 -2.102,-14.90672 -2.371,-43.24599 -0.5057,-53.27711 1.6267,-8.74758 5.082,-16.39336 9.1233,-20.18786 2.9554,-2.77483 3.6782,-2.97957 9.6293,-2.7278 3.6534,0.15456 6.434,-0.14467 6.434,-0.69239 0,-1.52187 -9.1092,-26.85551 -16.7487,-46.57981 -11.7693,-30.38714 -14.8607,-41.81022 -15.8303,-58.49435 -0.5369,-9.23788 -1.0089,-11.29004 -3.912,-17.00565 -4.3165,-8.4984 -9.3823,-24.55461 -10.4633,-33.16329 -0.9965,-7.93595 0.1653,-23.32907 2.2518,-29.83671 4.5144,-14.07956 13.1762,-27.63181 20.9525,-32.78211 2.0625,-1.36602 3.7418,-2.76136 3.7318,-3.10078 -0.01,-0.33941 -1.3493,-2.58144 -2.9763,-4.9823 -4.0531,-5.98108 -4.6858,-10.27611 -2.6564,-18.03385 4.3872,-16.77046 19.0313,-36.66966 41.8949,-56.9287 22.1506,-19.627287 41.3203,-30.785177 71.256,-41.475127 38.139,-13.61934 69.0491,-18.97333 122.5,-21.21845 42.7945,-1.79752 94.5226,8.49409 139,27.65483 35.3468,15.22733 73.5408,45.289937 86.2651,67.899507 4.6983,8.34852 7.1197,14.86988 8.2491,22.21698 0.511,3.3241 0.901,3.75 3.4343,3.75 4.118,0 22.2236,6.49344 31.4463,11.2779 15.7232,8.15683 32.5698,27.63053 44.0565,50.92698 3.8069,7.72096 5.1724,12.17413 8.0631,26.29512 3.7675,18.40489 4.0698,23.80644 2.468,44.10478 -1.344,17.03189 -3.9608,32.03655 -10.4457,59.89522 -2.9446,12.65 -6.3285,27.725 -7.5197,33.5 -2.332,11.30508 -4.5582,19.46231 -6.0674,22.23169 -0.771,1.41482 -0.441,1.83311 1.8034,2.28594 6.1303,1.23686 13.4058,5.90745 19.8603,12.74966 10.7303,11.37464 14.3383,22.12738 14.3693,42.82371 0.039,25.96319 -5.114,46.51696 -18.1274,72.30588 -8.9731,17.78216 -19.0083,30.72742 -31.54,40.68586 -17.3125,13.75766 -34.4477,17.87062 -53.8152,12.91726 -4.301,-1.1 -7.9337,-2 -8.0727,-2 -0.6697,0 -5.7568,23.6308 -8.9339,41.5 -3.7158,20.89912 -5.9395,43.16006 -6.9647,69.72028 l -0.6067,15.72028 3.3346,1.39329 c 4.2895,1.79228 5.6975,4.04183 10.1299,16.18506 4.825,13.21882 5.8097,15.04153 13.0655,24.18467 27.0576,34.09599 34.049,43.29894 35.5474,46.79206 1.1078,2.58268 2.9217,4.63275 5.1091,5.77431 1.8653,0.97348 6.9915,4.03001 11.3915,6.7923 15.7255,9.87234 71.9251,36.2294 148.3697,69.5839 43.158,18.8308 89.0118,39.9678 99.1303,45.6956 l 7.5,4.2456 0.2518,270.70642 0.2518,270.7063 H 512 -0.0018 Z m 493.7749,-166.4385 c 2.7631,-6.875 14.4702,-35.45 26.0158,-63.5 11.5456,-28.05 24.458,-59.55 28.6941,-70 19.2689,-47.5336 30.7282,-74.4259 40.4413,-94.9069 l 6.1211,-12.9069 -5.748,-5.0931 c -15.7446,-13.95082 -23.4951,-21.49222 -30.7992,-29.96842 -4.4,-5.1061 -13.5685,-15.773 -20.3744,-23.7043 -6.806,-7.9313 -12.9535,-15.0394 -13.6612,-15.7959 -1.4784,-1.5803 -4.4296,2.213 -25.4644,32.7304 -6.875,9.9743 -12.95,18.1365 -13.5,18.1383 -1.0828,0 -1.0605,1.4481 0.5105,33.00682 1.3173,26.4634 1.4989,88.3766 0.5063,172.5933 -0.7424,62.9805 -0.3845,80.7772 1.4962,74.4067 0.406,-1.375 2.9988,-8.125 5.7619,-15 z m -129.3015,-19.5 c 1.4614,-7.7 4.6354,-25.0728 7.0534,-38.6062 9.8412,-55.0808 16.8464,-83.0275 32.9354,-131.3938 7.742,-23.2737 11.3128,-32.3698 22.7689,-58 l 8.9395,-20.00002 -1.5852,-6.5 c -1.478,-6.0605 -3.6422,-22.2334 -5.5988,-41.8395 -0.4577,-4.5867 -1.0018,-8.509 -1.209,-8.7163 -0.2073,-0.2072 -4.4045,4.4142 -9.3272,10.2698 -14.2161,16.9103 -16.6952,19.691 -35.6953,40.036 -21.5758,23.1031 -23.0608,24.0271 -15.6108,9.7128 6.9938,-13.4376 23.0282,-36.0959 48.7209,-68.8474 11.689,-14.9005 17.3864,-21.0928 32.8238,-35.6749 l 11.1787,-10.5594 -13.9869,-14.4406 C 428.7915,837.6604 419.827,826.74742 408.7965,810.15961 l -8.4465,-12.70191 -2.0626,4.24539 c -1.1344,2.33496 -3.0516,8.50082 -4.2605,13.70191 -1.2089,5.20109 -5.049,20.93153 -8.5335,34.95658 -7.486,30.1305 -9.7859,41.5337 -16.4378,81.5 -10.8102,64.9511 -14.2558,98.93782 -16.0566,158.37602 -1.3809,45.5792 0.1093,105.9905 3.5059,142.124 0.8013,8.525 1.6611,17.975 1.9106,21 0.2494,3.025 0.5342,5.725 0.6328,6 0.099,0.275 0.7613,-3.1 1.4727,-7.5 0.7114,-4.4 2.4892,-14.3 3.9506,-22 z M 616.7653,960.36158 c 24.8897,-54.196 36.847,-81.4169 61.7105,-140.48425 11.3985,-27.07904 15.9277,-53.63013 12.4667,-73.08214 -1.798,-10.10519 -1.9279,-10.22684 -4.4071,-4.12695 -3.1488,7.74753 -12.6857,21.75319 -20.3308,29.85742 -12.4122,13.15758 -41.5052,37.13032 -63.2943,52.15472 -28.4707,19.6316 -85.0299,48.4814 -103.7767,52.9346 -2.8245,0.6709 -5.1354,1.5088 -5.1354,1.8619 0,0.3531 1.3791,1.2133 3.0648,1.9115 1.6856,0.6982 7.9251,6.6021 13.8655,13.1198 10.8911,11.9494 12.8838,14.4757 39.3239,49.8534 8.0155,10.725 18.7287,24.225 23.807,30 5.0784,5.775 12.3906,14.2736 16.2493,18.8858 l 7.0159,8.38582 2.4871,-4.88582 c 1.3679,-2.6872 8.997,-19.0608 16.9536,-36.3858 z m -150.0074,21.4264 c -0.9526,-0.9526 -12.15,-2.2106 -13.7597,-1.5458 -1.2718,0.5251 1.9763,1.0356 12.4167,1.9513 1.0541,0.093 1.6585,-0.09 1.343,-0.4055 z m 35.7403,-118.6372 c 6.6,-2.2239 20.9482,-8.0147 31.8848,-12.8683 30.3001,-13.44711 52.316,-25.94954 78.8944,-44.8026 21.5886,-15.3136 50.017,-41.47303 59.2116,-54.4858 l 4.8524,-6.86746 0.2922,-27.65851 c 0.2636,-24.95668 0.7858,-33.70816 2.9596,-49.60658 l 0.6837,-5 -3.8106,5.5 c -19.2606,27.79956 -42.6407,54.21115 -65.8336,74.36962 -27.2918,23.72122 -66.4993,53.58763 -87.1834,66.4122 -25.0349,15.5222 -49.1891,22.81765 -73.0507,22.06402 l -11.0997,-0.35056 14.3989,15.13047 c 7.9194,8.3217 16.5143,16.9819 19.0997,19.2448 4.6387,4.0601 4.7798,4.1067 10.7007,3.5383 3.3,-0.3169 11.4,-2.3957 18,-4.6196 z M 490.072,780.76373 c 30.0766,-5.09817 78.9233,-27.23618 106.359,-48.20339 15.0394,-11.49352 34.5868,-28.44097 40.1064,-34.77192 22.5446,-25.85835 37.4598,-51.78497 55.4104,-96.31778 8.6522,-21.46468 13.2682,-31.10911 14.8894,-31.10911 0.4151,0 1.2746,3.0375 1.91,6.75 1.3507,7.8922 2.8426,9.49397 11.0703,11.88583 4.0339,1.1727 7.7883,1.47123 13.5423,1.07684 21.2356,-1.45553 41.3884,-19.8682 57.1471,-52.21267 9.2728,-19.03233 11.9086,-29.08224 13.1306,-50.06625 0.7861,-13.49753 -0.6487,-24.4704 -4.8758,-37.28752 -2.8265,-8.57025 -3.4957,-9.67851 -7.9895,-13.23066 -10.5311,-8.32436 -23.9881,-9.05652 -32.3013,-1.75743 -3.8972,3.42179 -4.6681,2.78705 -1.2227,-1.00675 1.8876,-2.07841 1.4446,-1.9394 -2.75,0.86293 -11.0298,7.36887 -32.1258,26.86153 -40.2204,37.16355 -5.0112,6.37772 -6.0666,7.01473 -10.2394,6.18017 -7.5874,-1.51749 -8.2485,-5.5128 -6.5059,-39.32033 0.7806,-15.14574 1.7071,-33.83771 2.0588,-41.53771 l 0.6395,-14 -11.2229,-25.5 c -16.2961,-37.02722 -22.0447,-55.91383 -26.4808,-87 -0.9025,-6.325 -2.2851,-16 -3.0724,-21.5 -0.7873,-5.5 -1.5495,-16.67961 -1.6939,-24.84357 l -0.2626,-14.84357 3,-2.40146 c 1.65,-1.32081 2.5275,-2.4037 1.95,-2.40643 -0.5775,-0.003 -1.59,0.53503 -2.25,1.19503 -0.9333,0.93333 -1.2,0.84695 -1.2,-0.38871 0,-1.03674 1.2697,-1.82691 3.6546,-2.27432 5.7544,-1.07952 15.4265,-6.10865 20.3454,-10.57879 l 4.5,-4.08945 -4.5,2.92348 c -11.5567,7.50792 -18.1071,10.30759 -26.3046,11.24253 -4.4194,0.50404 -11.4463,1.36877 -15.6153,1.92162 -12.1965,1.61735 -39.201,3.03345 -58.0801,3.04569 -19.8709,0.0129 -61.7645,1.65726 -73,2.86535 -8.3372,0.89645 -8.7676,0.82502 -25,-4.14842 -28.9303,-8.86397 -67.5361,-11.69883 -118,-8.66487 -9.625,0.57867 -24.0958,2.15509 -32.1574,3.50316 -8.0615,1.34807 -15.4479,2.1477 -16.414,1.77695 -1.1998,-0.46039 -1.5274,-0.30319 -1.0336,0.49584 0.3977,0.64347 2.384,1.17683 4.414,1.18525 2.0301,0.008 3.241,0.34626 2.691,0.75076 -0.55,0.40449 -1.7308,2.0851 -2.6241,3.73469 -0.8933,1.64958 -4.235,7.27424 -7.4261,12.49924 -3.1911,5.225 -7.1066,12.875 -8.7011,17 -3.6525,9.44865 -10.2994,35.12103 -11.6512,45 -2.1184,15.4818 -6.6311,83 -5.5474,83 0.2144,0 1.982,-3.2625 3.928,-7.25 4.617,-9.46027 12.8273,-18.55171 21.8092,-24.14985 9.5116,-5.92823 16.2895,-7.60015 30.8109,-7.60015 14.4051,0 24.7265,2.68921 39.0387,10.17147 11.7284,6.13145 18.2024,11.64283 24.7739,21.09029 5.4498,7.8349 5.2245,9.69057 -0.8581,7.06902 -6.55,-2.82296 -16.8394,-6.14619 -24.7293,-7.98693 -6.444,-1.50342 -12.1432,-1.82619 -32.3234,-1.83064 -22.5636,-0.005 -25.2113,0.18146 -33.5,2.35884 -4.95,1.30033 -10.8,3.26583 -13,4.36779 -6.8689,3.44058 -15.341,8.90357 -15.8452,10.21726 -0.2654,0.69171 -0.067,12.90934 0.4405,27.15028 0.5077,14.24094 1.3488,52.89262 1.8693,85.89262 1.1128,70.56527 2.7769,93.39085 9.0528,124.1748 3.4088,16.72021 6.9263,26.06851 17.9952,47.8252 17.9945,35.3693 23.7434,43.87894 48.9342,72.43355 16.51,18.71457 23.9593,25.74794 34.5532,32.62355 14.859,9.64374 24.725,13.6511 40.417,16.41641 13.6618,2.40754 35.3439,2.60055 48.1568,0.42869 z m -50.73,-94.44362 c -5.383,-1.06497 -10.8518,-3.91098 -15.8248,-8.23529 -3.4749,-3.02164 -3.8089,-3.66902 -2.6275,-5.0925 1.7558,-2.11562 5.2127,-2.04338 18.6085,0.38884 15.3425,2.78567 29.8144,3.45214 44.3488,2.04235 6.7918,-0.65878 12.593,-0.95348 12.8916,-0.65489 2.0462,2.04617 -12.1735,8.56867 -24.0112,11.01381 -8.1053,1.6742 -26.1703,1.96514 -33.3854,0.53768 z m -8.3438,-41.06214 c -13.1338,-1.14544 -22.2946,-2.65989 -30.3789,-5.02223 -7.9424,-2.32084 -22.063,-8.69457 -25.4169,-11.4726 -2.053,-1.70043 -2.1454,-2.10695 -0.8738,-3.84255 1.3926,-1.90084 1.595,-1.87554 9.7958,1.22456 15.091,5.70478 24.431,7.34426 52.8738,9.28113 35.9438,2.44767 71.8164,-1.37576 100.5,-10.71164 16.0485,-5.22343 23.3799,-8.39947 24.0162,-10.404 0.6362,-2.00455 4.0809,-3.38347 6.9638,-2.78767 0.9011,0.18621 2.6104,2.04415 3.7987,4.12876 2.6185,4.59399 1.5266,7.32905 -2.7962,7.00417 -1.5049,-0.11309 -4.4944,0.69139 -6.6435,1.78774 -16.978,8.66154 -53.601,17.13235 -88.2496,20.41192 -17.0632,1.61506 -28.4767,1.72043 -43.5894,0.40241 z m -4.4865,-58.45631 c -25.8167,-9.18298 -41.6248,-29.04175 -38.0952,-47.85651 0.3621,-1.92999 3.7963,-8.27026 7.6317,-14.08948 11.5709,-17.55622 21.0681,-37.7928 26.044,-55.49414 7.2729,-25.8729 8.952,-50.39717 4.8073,-70.21316 -4.0017,-19.1323 -3.9183,-18.5237 -2.2292,-16.27235 2.9317,3.90757 7.1241,13.11251 9.3301,20.48551 4.1635,13.9157 3.8552,50.60267 -0.6092,72.5 -3.5457,17.39129 -10.0548,32.01603 -23.3084,52.37006 -4.9889,7.66164 -9.307,14.54605 -9.5959,15.29869 -0.8094,2.10929 8.9223,16.15683 14.253,20.57395 2.6171,2.16854 9.7083,7.00048 15.7583,10.73765 6.05,3.73717 11.8716,7.61705 12.9369,8.62196 1.8833,1.77649 1.8859,1.88348 0.095,3.8624 -2.5125,2.77632 -8.2342,2.59995 -17.0184,-0.52458 z m 36.4865,-12.59811 c -3.025,-1.10652 -8.1472,-2.16833 -11.3826,-2.35957 -3.2355,-0.19124 -6.2836,-0.74867 -6.7737,-1.23871 -1.8452,-1.8452 3.0629,-4.43157 10.335,-5.44623 9.0005,-1.2558 14.839,0.0663 19.0972,4.32456 2.8558,2.85576 2.8975,3.02881 1.187,4.91891 -2.2043,2.43576 -5.3995,2.38475 -12.4629,-0.19896 z m 275.6667,-16.50869 c -1.3889,-1.38889 -0.5159,-3.83683 4.4154,-12.38138 6.8838,-11.92744 8.9179,-18.86586 8.9179,-30.4186 0,-10.1001 -0.4602,-11.0754 -5.7231,-12.12798 -3.4902,-0.69802 -5.3399,0.13438 -11.2254,5.05164 -8.5027,7.10378 -9.1256,4.10154 -1.9448,-9.37383 12.8568,-24.12682 26.5413,-36.55933 42.4254,-38.54392 7.6841,-0.96007 14.8141,1.44377 16.9436,5.71248 0.9892,1.98298 1.2072,3.46535 0.599,4.07356 -0.5259,0.52589 -5.5953,1.48453 -11.2654,2.13031 -5.6701,0.64578 -11.2093,1.66653 -12.3093,2.26832 -1.1,0.6018 -5.5782,4.77666 -9.9516,9.27748 l -7.9517,8.18331 2.7331,1.65764 c 4.9344,2.99275 6.6724,8.40662 6.6528,20.72336 -0.03,18.75304 -4.6585,33.29496 -12.9952,40.82667 -3.6705,3.31613 -7.6803,4.58133 -9.3207,2.94094 z M 577.4982,486.13427 c -7.1068,-2.53323 -14.9192,-9.73036 -18.7495,-17.27274 -2.8905,-5.69199 -4.692,-15.46541 -4.9242,-26.71519 -0.2228,-10.79375 -0.1059,-11.5178 2.686,-16.63899 1.6054,-2.9448 4.6774,-7.35185 6.8266,-9.79344 2.1491,-2.44159 3.7329,-4.61387 3.5195,-4.82728 -0.2134,-0.21341 -4.3858,-0.92002 -9.272,-1.57026 -11.9841,-1.59479 -18.7949,0.47226 -30.1788,9.15922 -5.5898,4.26558 -7.4235,4.79648 -7.3771,2.13594 0.064,-3.64849 7.4406,-12.73061 13.806,-16.99722 9.2439,-6.19593 15.108,-7.61249 29.1133,-7.03274 13.8834,0.57471 17.6881,2.15325 26.2298,10.88267 7.2716,7.43132 10.3355,12.72371 12.4006,21.4196 1.9459,8.19416 2.1541,24.5544 0.4213,33.12049 -1.9172,9.47832 -10.0863,21.24121 -16.6587,23.98732 -3.7626,1.57213 -3.8291,1.57334 -7.8428,0.14262 z m -198.3167,-1.45272 c -5.2437,-2.58404 -12.5242,-9.68523 -15.3498,-14.97167 -3.9466,-7.38386 -5.2264,-14.49403 -5.2825,-29.34835 -0.06,-15.77708 0.8628,-18.37183 9.3543,-26.31469 2.8021,-2.621 5.0947,-5.02905 5.0947,-5.35122 0,-0.32217 -5.0625,-0.38399 -11.25,-0.13737 -12.9879,0.51765 -14.774,1.21535 -23.8547,9.31787 -3.3812,3.01697 -6.7658,5.48541 -7.5215,5.48541 -3.6731,0 1.0475,-11.24714 7.7915,-18.5635 2.2221,-2.4107 6.7658,-5.7451 10.0972,-7.40979 5.2802,-2.63855 7.1202,-3.02671 14.348,-3.02671 14.1948,0 24.5802,3.34453 31.323,10.08739 1.7475,1.74742 4.9801,6.7629 7.1836,11.14551 4.8411,9.62845 6.4543,20.52076 5.4454,36.7671 -0.909,14.63963 -5.5826,24.37676 -14.9625,31.17387 -4.4259,3.20717 -7.6335,3.50325 -12.4167,1.14615 z m 259.7217,-107.4711 c -8.1114,-5.25698 -20.8883,-11.16364 -30.0516,-13.89257 -23.5941,-7.02664 -55.3578,-9.54196 -81.4904,-6.4531 -19.7144,2.33023 -36.7225,2.54067 -38.7976,0.48005 -1.3694,-1.35988 -1.3264,-1.84724 0.4167,-4.71352 4.2169,-6.93404 19.3739,-15.53096 34.5314,-19.58588 16.0175,-4.28498 24.4924,-5.09082 40.1402,-3.81675 18.4165,1.4995 28.2394,4.04964 43.231,11.22327 20.2359,9.68311 28.2419,16.32803 37.0415,30.74407 7.0147,11.49185 5.7562,12.99922 -5.0212,6.01443 z M 276.9819,486.86153 c -0.2839,-33 -0.8945,-60.7875 -1.3569,-61.75 -0.4624,-0.9625 -1.3551,-1.75495 -1.9838,-1.76101 -0.6286,-0.006 -2.718,-0.26865 -4.643,-0.58354 -3.0766,-0.50329 -3.6978,-0.22977 -5.1354,2.261 -0.8994,1.55845 -2.2122,6.20855 -2.9173,10.33355 -1.8117,10.59879 -1.5842,41.13345 0.3948,53 1.9935,11.95375 8.6362,38.17473 12.1648,48.0185 1.475,4.11482 2.9215,8.28685 3.2144,9.27116 0.293,0.98432 0.5881,1.65932 0.6557,1.5 0.068,-0.15931 -0.1093,-27.28966 -0.3933,-60.28966 z m 485.3274,-125.25 c -0.8024,-2.24245 -8.2941,-10.12134 -26.8617,-28.25 -9.9975,-9.76113 -12.6872,-12.04886 -8.2302,-7 3.6415,4.125 12.2834,13.03063 19.2042,19.79029 6.9208,6.75967 13.3085,13.39717 14.195,14.75 1.89,2.88461 2.5734,3.17113 1.6927,0.70971 z m -32.4139,-37.32356 c -7.867,-8.29046 -15.2246,-15.54721 -16.3504,-16.12611 -1.1257,-0.5789 2.8827,4.0667 8.9077,10.32356 6.025,6.25686 13,13.49923 15.5,16.09416 2.5,2.59492 4.9282,4.73242 5.3959,4.75 0.4676,0.0176 -5.5863,-6.75115 -13.4532,-15.04161 z m 36.9352,-4.07906 c -0.7184,-1.29106 -12.7871,-14.04297 -26.8193,-28.33757 -26.2718,-26.76306 -23.6248,-24.8469 6.8819,4.98177 9.5673,9.35463 16.4165,15.57024 15.2204,13.81247 -2.9785,-4.37736 -44.9438,-44.80019 -46.53,-44.81983 -0.7011,-0.009 -2.807,-1.26949 -4.68,-2.80181 -8.0166,-6.55861 -12.1368,-9.68115 -12.75,-9.66284 -0.3605,0.0108 1.3696,1.6649 3.8446,3.67586 6.3774,5.18172 61.0407,59.59717 60.456,60.1819 -0.2662,0.2662 0.727,1.74801 2.2071,3.29291 3.0949,3.23041 4.066,3.08588 2.1693,-0.32286 z m -20.8545,-29.42049 c -4.6628,-4.71521 -10.7279,-10.38713 -13.4779,-12.60425 -2.75,-2.21713 0.7892,1.64077 7.865,8.57311 7.0757,6.93234 13.1408,12.60425 13.4779,12.60425 0.3371,0 -3.2021,-3.8579 -7.865,-8.57311 z M 314.9982,201.70411 c -0.825,-0.27473 -3.6084,-1.36421 -6.1854,-2.42105 -2.5769,-1.05684 -5.0519,-1.88408 -5.5,-1.8383 -1.6098,0.16448 9.2307,4.79363 11.1854,4.77645 1.3441,-0.0118 1.5081,-0.18138 0.5,-0.5171 z m 5.7292,0.0532 c -0.3323,-0.33229 -1.1948,-0.36781 -1.9167,-0.0789 -0.7977,0.31922 -0.5608,0.55618 0.6042,0.60416 1.0541,0.0434 1.6448,-0.19293 1.3125,-0.52522 z m 40.7708,-19.48215 c -30.5415,-6.19808 -33.9442,-6.67979 -52,-7.36156 -13.3642,-0.50463 -9.1705,0.20191 14.3671,2.42052 11.1641,1.05231 26.0697,3.74715 30.2336,5.46604 2.7277,1.12601 17.163,3.31721 21.8993,3.32421 2.8042,0.004 -2.66,-1.4464 -14.5,-3.84921 z m -13.5,0.47124 c -5.3571,-1.35776 -29.0846,-5.3531 -31.9167,-5.37428 -3.583,-0.0268 0.5464,1.14505 11.9787,3.39924 14.5575,2.87042 17.2365,3.27703 21.938,3.32976 2.988,0.0335 2.6954,-0.16467 -2,-1.35472 z M 649.706,164.40901 c -0.4395,-2.99888 -1.2673,-6.01667 -1.8395,-6.70619 -0.5723,-0.68953 -0.7689,-1.69303 -0.4371,-2.23 0.6927,-1.12079 -3.685,-11.18929 -6.7589,-15.54526 -1.1388,-1.61368 -2.1269,-3.69942 -2.1958,-4.63497 -0.164,-2.22639 -8.2139,-11.59661 -16.4373,-19.13343 -9.2843,-8.50905 -11.0462,-9.00221 -3.0168,-0.84442 3.7351,3.79492 6.6003,7.09076 6.367,7.32408 -0.2333,0.23332 1.8793,3.30387 4.6947,6.82346 2.8153,3.51959 6.241,8.31185 7.6125,10.64946 1.3715,2.33762 2.8698,4.01778 3.3295,3.73369 0.4596,-0.28409 1.1613,0.0103 1.5593,0.6543 0.4739,0.76671 0.2882,0.90169 -0.538,0.39108 -0.9451,-0.58411 -1.0786,-0.18382 -0.5321,1.59549 0.4012,1.30638 1.1414,2.89182 1.6449,3.5232 0.5034,0.63139 1.0762,1.98314 1.2728,3.0039 0.9513,4.93966 2.8802,10.99537 3.9148,12.29009 0.9183,1.14929 0.864,1.26822 -0.2677,0.58595 -1.1075,-0.66761 -1.2513,-0.43475 -0.6534,1.05805 1.0485,2.61817 1.3819,4.32106 1.647,8.41404 0.2139,3.30318 0.2606,3.24694 0.83,-1 0.3318,-2.475 0.2436,-6.95363 -0.1959,-9.95252 z m -16.2078,-32.83846 c -5.4652,-6.28582 -7.7371,-9.20902 -7.1571,-9.20902 0.7899,0 11.9807,13.01086 11.5501,13.42854 -0.2162,0.20961 -2.193,-1.68917 -4.393,-4.21952 z m -133.1858,38.25378 c -10.1511,-11.22808 -38.9841,-33.40285 -41.4505,-31.87853 -0.4871,0.301 -3.4681,-1.00626 -6.6246,-2.90502 -7.913,-4.76 -13.9325,-7.63767 -19.2391,-9.19741 -2.475,-0.72747 -9,-2.90541 -14.5,-4.83988 -5.5,-1.93447 -11.8,-3.7724 -14,-4.08428 -2.5275,-0.35831 -0.3982,0.7012 5.784,2.87805 5.3812,1.89481 13.3896,4.83557 17.7964,6.53503 4.4068,1.69945 8.5111,2.78173 9.1205,2.40507 0.6305,-0.38968 0.8285,-0.23242 0.4594,0.36488 -0.6525,1.05573 1.497,2.38216 4.4035,2.7173 0.8601,0.0992 5.4873,2.26748 10.2827,4.81846 4.7953,2.55098 8.4069,4.09486 8.0258,3.43084 -0.4002,-0.69722 -0.3083,-0.85522 0.2174,-0.37398 0.5007,0.45834 0.9103,1.32084 0.9103,1.91667 0,0.59583 0.6251,1.29171 1.3892,1.5464 0.926,0.30868 1.1246,0.0349 0.5955,-0.82118 -1.0002,-1.6184 -0.092,-1.07535 9.0153,5.39031 6.92,4.91283 14.3398,10.9809 21.3765,17.48227 l 3.6235,3.3478 -4.5,-3.08945 c -2.475,-1.69919 -7.2665,-5.50309 -10.6478,-8.4531 -3.3814,-2.95002 -7.8814,-6.40157 -10,-7.67012 -2.1187,-1.26856 -4.8897,-3.23558 -6.1577,-4.37117 -2.1123,-1.89162 -2.2452,-1.90751 -1.586,-0.18958 0.5308,1.38332 -0.8315,0.82334 -5.1945,-2.13509 -7.0312,-4.76778 -15.9599,-9.40787 -16.6928,-8.67499 -0.2873,0.2873 -2.7896,-0.62657 -5.5608,-2.03083 -6.6249,-3.35707 -24.1655,-9.9095 -24.8079,-9.26715 -0.2767,0.2768 0.5432,0.83353 1.8221,1.23719 1.279,0.40365 8.1372,3.19547 15.2406,6.20403 7.1033,3.00856 13.4033,5.54232 14,5.63057 1.2556,0.18573 7.8809,3.89564 15.1202,8.46676 2.7695,1.74874 6.0134,3.36785 7.2086,3.59803 3.5661,0.68676 20.1827,12.62091 35.543,25.52711 2.6329,2.2122 5.0242,4.02219 5.3142,4.02219 0.29,0 -2.5392,-3.39174 -6.287,-7.5372 z m 95.2508,-0.06 c -0.3305,-1.31659 -0.482,-2.50832 -0.3368,-2.64829 0.1452,-0.13998 -0.7467,-1.67397 -1.9821,-3.40887 -1.2353,-1.73491 -2.2461,-3.62169 -2.2461,-4.19285 0,-2.06164 -4.5105,-8.61922 -8.2562,-12.00322 -2.1046,-1.9014 -4.7482,-4.85039 -5.8747,-6.55332 -1.1625,-1.75751 0.3687,-0.58992 3.5414,2.70038 3.0742,3.18814 5.5895,5.30544 5.5895,4.70511 0,-1.55495 -16.1874,-18.08248 -28.481,-29.07945 -5.7408,-5.13529 -10.242,-9.53263 -10.0027,-9.77188 0.5863,-0.58637 8.9638,6.6419 21.4815,18.53487 5.6816,5.39809 9.8391,8.91472 9.2388,7.81472 -0.6003,-1.1 -3.8029,-4.66487 -7.1168,-7.92194 -3.3139,-3.25707 -5.8402,-6.22144 -5.614,-6.5875 0.5539,-0.89612 -6.8674,-8.07298 -8.6178,-8.33402 -1.9898,-0.29674 -11.1342,-6.74366 -10.4855,-7.39238 0.2987,-0.29868 2.1003,0.64469 4.0036,2.09639 4.0115,3.05974 6.3204,3.58083 2.5939,0.58543 -3.3528,-2.69502 -8.3867,-5.38068 -7.551,-4.02858 0.368,0.59543 0.1925,1.0826 -0.39,1.0826 -0.5824,0 -1.059,-0.37372 -1.059,-0.83048 0,-1.92771 -16.568,-12.554527 -18.0986,-11.608547 -0.4958,0.30638 -0.9014,0.12224 -0.9014,-0.40921 0,-1.02663 -19.3379,-11.3108 -20.6982,-11.00756 -0.441,0.0983 -2.0233,-0.32668 -3.5162,-0.94444 -4.4301,-1.83315 -13.8981,-4.42057 -14.387,-3.9317 -0.2492,0.24921 2.1467,1.19699 5.3242,2.1062 3.1774,0.9092 8.7022,3.27373 12.2772,5.2545 13.5088,7.48474 19.1845,10.37124 20.3927,10.37124 0.686,0 3.0158,1.49061 5.1773,3.31247 2.1615,1.82185 4.9927,4.036887 6.2916,4.922307 6.2473,4.25865 33.2265,28.81366 32.6619,29.72714 -0.262,0.42393 0.4185,1.58063 1.5123,2.57044 4.1032,3.71337 16.8842,20.19868 19.8507,25.60404 1.6946,3.08783 3.6314,8.03285 4.3039,10.98892 0.8611,3.78511 1.334,4.67916 1.599,3.02297 0.207,-1.29344 0.106,-3.42892 -0.2244,-4.7455 z m -24.1279,-34.6528 -2.9371,-3.25 3.25,2.93709 c 1.7875,1.6154 3.25,3.0779 3.25,3.25 0,0.77256 -0.8251,0.0924 -3.5629,-2.93709 z m -11.9842,-17.91222 c -3.4231,-3.60436 -3.5508,-3.88689 -0.9529,-2.10793 3.6407,2.49299 7.1695,6.27015 5.8579,6.27015 -0.5236,0 -2.7308,-1.873 -4.905,-4.16222 z m -15.6874,-9.21846 c -0.9539,-0.72439 -1.4961,-1.55541 -1.2048,-1.8467 0.2913,-0.2913 -1.4032,-1.66648 -3.7655,-3.05596 -2.3624,-1.38949 -5.4202,-3.766717 -6.7952,-5.282747 -1.375,-1.51603 -1.825,-2.36589 -1,-1.88859 2.9025,1.6792 12.5218,9.252957 14.405,11.341737 2.1059,2.33576 1.0772,2.7952 -1.6395,0.73226 z M 526.9982,94.361533 c -0.9013,-0.58246 -1.0246,-0.97549 -0.309,-0.98469 0.655,-0.008 1.4691,0.43469 1.809,0.98469 0.7673,1.24153 0.4211,1.24153 -1.5,0 z m -12.6871,-5.84408 c -4.5029,-2.56076 -8.5529,-5.03494 -9,-5.49819 -1.3166,-1.36419 13.963,6.46378 16.572,8.49006 3.9428,3.06223 1.0952,1.93706 -7.572,-2.99187 z M 321.7274,173.75736 c -0.3323,-0.33229 -1.1948,-0.36781 -1.9167,-0.0789 -0.7977,0.31922 -0.5608,0.55618 0.6042,0.60416 1.0541,0.0434 1.6448,-0.19293 1.3125,-0.52522 z m -11.9792,-1.1243 c -2.0625,-0.21574 -5.4375,-0.21574 -7.5,0 -2.0625,0.21575 -0.375,0.39226 3.75,0.39226 4.125,0 5.8125,-0.17651 3.75,-0.39226 z m 214.2504,-19.12128 c -2.9988,-4.62792 -17.8878,-19.15025 -19.6338,-19.15025 -0.4307,0 1.2232,2.12992 3.6752,4.73316 4.7804,5.07518 3.8774,4.4113 -8.5857,-6.31208 -4.4241,-3.80659 -10.5935,-8.92677 -13.7096,-11.37816 -3.1161,-2.4514 -5.4709,-4.65181 -5.2329,-4.88981 0.5171,-0.51718 2.7132,1.01968 8.9137,6.23816 2.5429,2.1402 4.872,3.64273 5.1758,3.33896 0.5018,-0.50177 -6.0086,-5.82018 -13.9827,-11.42258 -3.3589,-2.35989 -5.1152,-2.91728 -4.1204,-1.30765 1.0636,1.721 -1.0874,1.09245 -3.5395,-1.03429 -4.1301,-3.582 -18.102,-10.05559 -20.239,-9.37732 -1.4276,0.45312 -1.7567,0.27763 -1.1922,-0.63576 0.4785,-0.77429 0.3748,-1.01138 -0.2686,-0.61378 -0.5765,0.35633 -2.7197,-0.0505 -4.7626,-0.90407 -2.0428,-0.853567 -3.8934,-1.372757 -4.1124,-1.153757 -0.219,0.219 3.7241,2.275867 8.7625,4.570827 5.0383,2.29496 8.9123,4.42102 8.6087,4.72459 -0.3036,0.30356 -3.6356,-0.98901 -7.4044,-2.87238 -7.318,-3.65692 -14.672,-6.224747 -20.3525,-7.106557 -1.925,-0.29883 0.325,0.73569 5,2.298927 4.675,1.56324 12.4568,4.68933 17.2929,6.94687 4.8361,2.25753 8.5221,3.66632 8.191,3.13065 -0.6972,-1.12805 -0.2647,-1.21082 1.9286,-0.36917 0.8668,0.33264 1.2841,1.07717 0.9272,1.65451 -0.4057,0.65649 -0.1594,0.74731 0.6575,0.24244 0.7907,-0.48867 1.7397,-0.22505 2.4045,0.66798 0.6041,0.81139 3.5733,3.04323 6.5983,4.95964 7.7466,4.90765 8,5.04914 8,4.46693 0,-0.28697 -2.6056,-2.29121 -5.7903,-4.45387 -5.2498,-3.56507 -10.1754,-8.07244 -7.7097,-7.05503 1.6318,0.6733 10.6083,7.17606 14.4422,10.46212 1.9568,1.67723 5.5828,4.58749 8.0578,6.46725 2.475,1.87976 9.0555,7.35201 14.6233,12.16055 5.5678,4.80855 10.2928,8.57504 10.5,8.36999 0.2072,-0.20506 2.4017,2.00129 4.8767,4.903 2.475,2.9017 4.6615,5.13844 4.8589,4.97053 0.1974,-0.16791 -1.0889,-2.53967 -2.8585,-5.27057 z m -10.0761,-7.90025 -2.4243,-2.75 2.75,2.42431 c 1.5125,1.33338 2.75,2.57088 2.75,2.75 0,0.78428 -0.8098,0.14598 -3.0757,-2.42431 z m -36.4243,-30.25 c -0.3399,-0.55 -0.168,-1 0.382,-1 0.55,0 1.2781,0.45 1.618,1 0.3399,0.55 0.168,1 -0.382,1 -0.55,0 -1.2781,-0.45 -1.618,-1 z m -17.5,-8 c -4.125,-2.14556 -7.05,-3.90102 -6.5,-3.90102 0.55,0 4.375,1.75546 8.5,3.90102 4.125,2.14556 7.05,3.90102 6.5,3.90102 -0.55,0 -4.375,-1.75546 -8.5,-3.90102 z m 54.0542,32.10121 c -1.1689,-2.18412 -13.9164,-12.57234 -14.595,-11.89377 -0.3567,0.3567 14.2196,13.3976 15.326,13.71162 0.1568,0.0445 -0.1721,-0.77352 -0.731,-1.81785 z m -12.605,-8.15421 c -1.6087,-1.67916 -2.9304,-3.66367 -2.9371,-4.41003 -0.012,-1.37987 -8.2836,-8.50953 -9.8927,-8.52726 -0.4844,-0.005 1.4281,1.82857 4.25,4.07536 5.4821,4.36494 6.1601,5.21455 3.3806,4.23617 -0.9625,-0.3388 0.029,1.25032 2.2029,3.53138 2.1742,2.28106 4.3959,4.14738 4.9371,4.14738 0.5413,0 -0.3321,-1.37385 -1.9408,-3.053 z m -91.4492,-9.947 c -0.825,-0.53316 -1.95,-0.96937 -2.5,-0.96937 -0.55,0 -0.325,0.43621 0.5,0.96937 0.825,0.53316 1.95,0.96937 2.5,0.96937 0.55,0 0.325,-0.43621 -0.5,-0.96937 z m -13.5589,-4.4682 c -2.5115,-1.89963 -3.5239,-1.91112 -2.8027,-0.0318 0.3166,0.825 1.5134,1.5 2.6597,1.5 2.0473,0 2.0498,-0.026 0.143,-1.4682 z m -29.4411,-1.47622 8.5,-0.74592 -9,-0.0559 c -4.95,-0.0308 -11.475,0.2862 -14.5,0.70437 l -5.5,0.7603 6,0.0416 c 3.3,0.0229 9.825,-0.29411 14.5,-0.70437 z m 24.9167,-0.41674 c -0.2292,-0.19864 -3.7917,-0.60203 -7.9167,-0.89643 -4.3939,-0.3136 -6.2576,-0.21303 -4.5,0.24284 3.0323,0.78649 13.1867,1.321 12.4167,0.65359 z m 88.3333,-40.301117 c -0.6875,-0.27741 -1.8125,-0.27741 -2.5,0 -0.6875,0.27741 -0.125,0.50439 1.25,0.50439 1.375,0 1.9375,-0.22698 1.25,-0.50439 z"
       id="path293" /><path
       style="fill:#000000"
       d="m 1748.8618,1132.3375 c -37.1796,-3.0502 -58.3103,-6.9777 -99.0241,-18.4052 -16.9718,-4.7636 -44.5778,-15.9435 -67.9759,-27.529 -61.6489,-30.5252 -117.5663,-77.1528 -158.7875,-132.40749 -40.1707,-53.84662 -65.8416,-110.32276 -78.2102,-172.06295 -7.5908,-37.89103 -9.9066,-63.11906 -9.1794,-100 0.7279,-36.92187 3.9913,-62.09984 12.2109,-94.2108 13.5206,-52.82047 35.2471,-99.62435 66.6955,-143.67779 25.1874,-35.28288 57.3976,-68.20367 92.2707,-94.30629 7.7254,-5.78251 29.9687,-20.93922 31.5825,-21.52054 0.4346,-0.15653 -0.096,-2.90063 -1.1796,-6.09802 -7.3101,-21.57505 -3.7768,-41.59783 10.3564,-58.68969 7.1472,-8.64335 13.2323,-12.63728 31.7407,-20.83283 8.525,-3.77488 24.05,-11.15146 34.5,-16.3924 51.874,-26.0161 87.1259,-36.83285 130.2589,-39.96887 18.0398,-1.3116 43.1991,-0.14913 59.6965,2.75824 32.5263,5.73217 67.3865,26.20827 81.5008,47.87176 7.3995,11.35709 14.0438,29.53965 14.0438,38.43143 v 4.07552 l 3.5411,-2.40304 c 4.2696,-2.89743 12.0487,-4.0339 21.9075,-3.20053 19.0956,1.61418 41.4436,13.26605 56.8455,29.63831 4.2382,4.50532 7.7059,8.56918 7.7059,9.0308 0,0.46162 4.8375,3.43071 10.75,6.59798 62.8458,33.6658 115.1449,81.212 154.9939,140.90818 32.7201,49.01661 56.7224,111.98924 65.1731,170.98857 12.5776,87.81202 -4.7058,186.36657 -46.1219,263 -20.9392,38.74425 -41.4692,67.79507 -67.6542,95.73315 -69.9263,74.608 -160.0784,122.8998 -258.051,138.2304 -26.7844,4.1911 -75.9254,6.3826 -99.5899,4.4411 z m 56.4202,-10.7806 c 2.6151,-0.731 4.7268,-5.2503 19.2161,-41.124 5.8427,-14.4659 13.7795,-33.5609 21.4841,-51.6887 l 1.3552,-3.1887 -20.1679,-26.8113 c -24.2181,-32.19577 -34.5517,-45.31135 -35.7003,-45.31135 -0.4704,0 -3.2725,3.7125 -6.2269,8.25 -2.9545,4.5375 -8.4611,12.69312 -12.237,18.12361 -3.7759,5.43048 -7.6748,11.73048 -8.6642,14 -1.7944,4.11594 -1.7903,4.16311 1.6177,18.62644 5.7802,24.5308 10.403,66.8348 10.403,95.1998 v 14.8002 l 13.25,-0.1 c 7.2875,-0.055 14.3391,-0.4042 15.6702,-0.7763 z m -123.4289,-16.374 c 2.6936,-24.484 14.5919,-60.1616 31.0985,-93.25 l 8.4807,-17.00005 -1.9661,-7.63951 c -1.0813,-4.20172 -3.5466,-11.40172 -5.4784,-16 -5.6125,-13.35942 -10.3513,-23.9191 -11.0453,-24.61317 -1.1571,-1.15708 -17.4987,15.89196 -33.3106,34.75268 -8.5303,10.175 -15.9317,18.65865 -16.4477,18.85265 -0.5159,0.1939 -1.8121,-0.43833 -2.8802,-1.40502 -1.9165,-1.73439 -1.9423,-1.50125 -1.9523,17.64742 -0.01,10.6727 0.4719,27.28 1.061,36.905 1.0956,17.8988 3.782,50.1731 4.2107,50.5863 0.2543,0.2451 25.791,7.2156 26.8902,7.3399 0.3585,0.041 0.9613,-2.7387 1.3395,-6.1762 z m 176.9733,-107.75005 c 18.2936,-47.57338 39.9572,-105.29527 49.6666,-132.33515 11.1498,-31.05111 20.0663,-73.29859 17.8688,-84.66484 -0.4786,-2.475 -1.1447,-6.1875 -1.4803,-8.25 -0.3357,-2.0625 -0.9576,-3.75 -1.3821,-3.75 -0.4246,0 -1.5553,3.32319 -2.5129,7.38486 -2.0104,8.52765 -6.561,15.97334 -20.2393,33.11514 -16.7294,20.96542 -38.1677,40.67856 -64.3854,59.20399 -14.7894,10.45023 -40.3476,25.95544 -54.1634,32.85902 -7.3351,3.66523 -13.5205,6.83439 -13.7453,7.04259 -0.2248,0.20819 3.8307,4.7696 9.0122,10.13646 11.9187,12.34494 20.7149,22.79861 39.765,47.25793 8.3532,10.725 18.0877,23.1 21.6323,27.5 3.5446,4.4 8.1445,10.32825 10.222,13.17395 2.0775,2.8456 4.0378,4.8706 4.3562,4.5 0.3184,-0.3707 2.742,-6.2989 5.3856,-13.17395 z m -197.3882,-20.67506 c 11.0747,-16.31275 45.026,-52.40581 61.4236,-65.29838 4.4,-3.45947 8.1233,-6.60063 8.2741,-6.98034 0.1507,-0.37971 -7.2743,-6.72384 -16.5,-14.09808 -24.2553,-19.38756 -43.1241,-39.39983 -56.5227,-59.94813 -2.6897,-4.125 -5.249,-7.62997 -5.6873,-7.78881 -1.7099,-0.61968 -5.0162,42.52481 -5.0435,65.81298 -0.033,28.20123 3.2884,87.426 5.6567,100.86369 l 0.597,3.38786 2.2633,-5.56292 c 1.2448,-3.05961 3.7373,-7.73415 5.5388,-10.38787 z m -206.6956,-75.45175 c 44.4776,-19.14181 79.0092,-34.37016 122.6192,-54.07485 25.5979,-11.5661 26.7383,-12.20312 33.5,-18.71197 3.85,-3.70603 13.4125,-12.48017 21.25,-19.49808 l 14.25,-12.75984 -4e-4,-11.16422 -4e-4,-11.16422 -9.096,-11 c -32.6669,-39.50468 -39.6912,-54.35007 -50.4803,-106.6864 -0.4402,-2.13524 -1.9033,-3.31786 -7.1313,-5.76433 -8.8997,-4.1647 -21.431,-16.7426 -26.5795,-26.6784 -5.8342,-11.25909 -12.602,-28.89011 -15.7294,-40.97697 -8.3875,-32.41615 -7.6771,-66.28464 1.6222,-77.33617 4.3166,-5.13003 7.7375,-6.90086 16.7529,-8.67225 7.0071,-1.37677 8.5862,-2.0105 8.2102,-3.29505 -0.256,-0.87474 -2.9641,-11.51942 -6.018,-23.65484 -3.054,-12.13542 -8.2898,-29.68542 -11.6353,-39 -8.0509,-22.41555 -8.7599,-24.71359 -9.9933,-32.38843 -2.0926,-13.02162 -1.3576,-22.20687 3.1643,-39.54717 4.6856,-17.96781 5.4246,-21.5 4.4983,-21.5 -1.0832,0 -24.0195,15.61376 -33.3154,22.67936 -35.311,26.839 -68.553,61.6837 -91.4456,95.85426 -19.4584,29.04467 -38.9613,66.97038 -49.6068,96.46638 -25.9121,71.79625 -30.5083,153.59403 -13.0923,233.00001 7.821,35.65875 19.8878,68.96425 36.7742,101.49999 7.9903,15.39527 17.9051,32.5 18.8387,32.5 0.2887,0 19.4785,-8.15706 42.644,-18.12681 z m 707.2682,-7.12319 c 27.1519,-48.30427 45.1356,-110.19752 50.4291,-173.55901 1.4905,-17.84071 0.6332,-64.12048 -1.4814,-79.9662 -5.9525,-44.60539 -16.4983,-81.04912 -35.0512,-121.12887 -29.6328,-64.01562 -72.2713,-116.43352 -129.0455,-158.643 -14.4339,-10.73109 -43.6167,-29.45292 -45.9099,-29.45292 -0.3085,0 0.3228,2.24204 1.403,4.98232 4.9237,12.49153 7.5068,25.14612 7.4541,36.51768 -0.058,12.42326 -2.3412,23.00738 -14.1319,65.5 -7.0976,25.57917 -14.3099,52.98087 -14.3132,54.38005 -10e-4,0.48403 2.0673,0.6468 4.5966,0.36171 5.5832,-0.6293 14.7517,1.3886 21.2339,4.67342 13.2327,6.70548 19.5367,22.84786 19.5596,50.08482 0.03,35.9002 -11.6141,66.00141 -34.272,88.5961 -11.5768,11.5445 -20.4138,16.06789 -32.6446,16.70985 -6.3222,0.33183 -9.4312,0.0288 -12.5632,-1.22435 -2.2891,-0.91591 -4.2719,-1.53396 -4.4062,-1.37345 -0.1343,0.16052 -1.0276,3.89185 -1.985,8.29185 -0.9574,4.4 -3.7361,14.075 -6.1749,21.50001 -6.5434,19.92191 -9.224,33.46425 -9.9986,50.51313 l -0.6633,14.5977 4.4848,4.69459 c 2.4666,2.58202 8.7251,9.86958 13.9078,16.19458 5.1827,6.325 17.3737,20.09698 27.0912,30.60441 l 17.6683,19.10441 38.3317,19.0699 c 21.0825,10.48844 49.3568,25.1038 62.8318,32.47856 13.475,7.37477 32.825,17.8366 43,23.24853 10.175,5.41192 19.85,10.6604 21.5,11.66328 1.65,1.00288 3.0872,1.82511 3.1937,1.82716 0.1066,0.002 2.7864,-4.60876 5.9553,-10.24626 z m -385.8878,-2.36418 c 47.6277,-27.83622 66.4129,-40.95897 92.042,-64.2975 18.8008,-17.12044 38.3268,-43.37233 41.9843,-56.44591 0.8961,-3.20317 1.6295,-12.11888 1.9449,-23.6424 l 0.5064,-18.5 -8.9869,12 c -16.4588,21.97699 -54.3492,64.15825 -68.0589,75.76626 -12.7237,10.77315 -38.7276,26.23191 -51.8386,30.81697 -9.6063,3.35946 -19.8313,4.91677 -32.2824,4.91677 -19.4151,0 -32.0067,-4.32169 -48.3674,-16.60057 -7.3333,-5.5037 -13.9628,-12.12197 -38.4314,-38.36592 l -4.2268,-4.53351 -0.023,10.52088 -0.023,10.52087 13.25,17.47913 c 20.3564,26.8538 40.4782,46.74514 61.75,61.0428 7.4038,4.97643 10.6032,6.5254 14.5,7.02004 10.7522,1.36483 10.7575,1.36327 26.2612,-7.69791 z m -2.7612,-68.33102 c 7.6158,-1.51237 21.2211,-5.73555 27.6805,-8.59217 16.5963,-7.3397 50.1958,-34.0396 70.8492,-56.30055 23.618,-25.4562 37.7939,-47.11298 47.3705,-72.36887 5.2253,-13.78059 13.301,-46.00483 17.156,-68.45776 4.7969,-27.93885 4.6719,-27.50342 7.789,-27.14269 2.5538,0.29555 2.6675,0.57365 2.9885,7.30724 0.1836,3.85 -0.1915,13.9272 -0.8335,22.39378 l -1.1672,15.39378 2.5499,2.54982 c 4.8392,4.83921 18.5596,4.33242 27.5358,-1.01708 7.0357,-4.19306 17.0645,-15.63682 24.9867,-28.51209 9.962,-16.19038 16.9783,-49.20864 15.0712,-70.92513 -0.929,-10.57898 -2.3643,-15.65013 -6.6672,-23.55602 -3.416,-6.27636 -6.7832,-8.04986 -16.3094,-8.59009 -7.4564,-0.42285 -7.5249,-0.40381 -11.7912,3.2821 -2.3602,2.03908 -7.0648,7.36896 -10.4547,11.84417 -11.4893,15.16795 -22.5026,25.28828 -24.905,22.88582 -1.8563,-1.85629 -2.8323,-8.64402 -3.8462,-26.74906 -1.7058,-30.46125 -4.1544,-46.38268 -7.9974,-52 -3.8648,-5.64931 -7.4935,-13.08402 -9.5175,-19.5 -1.345,-4.26357 -1.9077,-11.23252 -2.5033,-31 -1.0458,-34.71089 -2.3974,-39.09391 -20.5865,-66.75865 -10.832,-16.47504 -13.3442,-21.32569 -13.3762,-25.82726 -0.012,-1.69724 1.9308,-9.57224 4.3175,-17.5 2.3866,-7.92775 4.6767,-15.53909 5.0889,-16.91409 0.5435,-1.81286 10e-4,-1.40058 -1.9721,1.5 -7.1763,10.54734 -22.5337,23.55289 -34.7819,29.45524 -10.6355,5.12525 -20.5988,7.93185 -50.0132,14.08852 -13.2886,2.78142 -29.7862,6.25561 -36.6612,7.72042 -11.1356,2.37259 -14.6284,2.66102 -32,2.64252 l -19.5,-0.0208 -24.5,-5.26742 c -48.3769,-10.40089 -53.7868,-11.34225 -66,-11.48453 -10.919,-0.1272 -11.7411,0.008 -16.2727,2.67148 -2.6249,1.543 -7.6529,5.4998 -11.1732,8.79288 -10.5668,9.88466 -15.4621,19.16652 -18.1432,34.40054 -1.7095,9.71344 -1.8942,44.49316 -0.417,78.50113 0.5614,12.925 1.4904,38.125 2.0645,56 3.1563,98.28962 3.2423,99.57949 8.801,132 4.6514,27.12896 7.7133,39.81064 14.6073,60.50001 5.3007,15.9078 17.1668,35.56839 30.7401,50.93241 3.6887,4.17536 10.7927,12.95278 15.7868,19.50539 27.9116,36.62223 53.1251,53.72158 82.5064,55.95428 9.0389,0.68686 25.2727,-0.20347 33.5,-1.83729 z m -37.391,-80.06114 c -3.79,-0.47063 -9.1239,-1.58604 -11.8531,-2.4787 -5.2277,-1.7099 -12.7559,-6.20268 -12.7559,-7.61265 0,-2.53952 4.6484,-2.88956 26.202,-1.97311 12.2723,0.52182 26.7943,0.58244 32.298,0.13483 10.1715,-0.82723 13.5,-0.22833 13.5,2.42901 0,1.88111 -8.1109,6.56931 -14.0149,8.1008 -6.4146,1.66394 -24.9789,2.44254 -33.3761,1.39982 z m -9.109,-32.94082 c -15.6354,-1.23242 -30.4136,-4.65643 -43.643,-10.1118 -12.163,-5.01563 -16.9611,-10.20938 -11.9227,-12.90585 3.1032,-1.66077 5.8732,-1.22924 12.5431,1.95405 11.4026,5.44195 33.6872,10.31601 53.0226,11.59707 24.6363,1.63226 69.7673,-6.87296 82.596,-15.56571 6.8911,-4.66947 16.904,-4.06266 16.904,1.02442 0,2.88109 -3.2063,4.71978 -16.3789,9.39267 -34.3532,12.18657 -64.301,16.88682 -93.1211,14.61515 z m -5.3876,-53.61198 c -11.3696,-3.10284 -23.7199,-11.86389 -26.6668,-18.91697 -1.8681,-4.47089 -2.8067,-12.6302 -2.0406,-17.7389 0.3738,-2.49252 3.8171,-10.24346 8.1315,-18.30409 11.9958,-22.41158 13.9683,-27.75439 17.53,-47.4809 2.9356,-16.25914 3.1258,-18.66996 2.6819,-34 -0.2671,-9.22382 -1.0014,-17.80184 -1.6652,-19.45214 -1.1509,-2.86145 -1.1291,-2.8994 0.7096,-1.23538 2.87,2.59726 7.0791,11.86674 9.2592,20.39061 3.6537,14.28601 1.6352,40.46038 -4.5386,58.85169 -2.3406,6.97266 -8.8118,20.42344 -17.0021,35.34003 -2.7869,5.07562 -3.5113,7.50414 -3.5113,11.77234 0,4.90542 0.3599,5.7679 4.0985,9.82389 2.535,2.75012 6.8267,5.74745 11.25,7.85693 9.1911,4.38326 12.8867,7.76707 12.4667,11.41471 -0.389,3.37873 -2.9819,3.78528 -10.7028,1.67818 z m 24.6307,-6.56631 c 1.1759,-4.49662 8.9745,-8.22247 19.7569,-9.43908 13.1349,-1.48203 16.0302,-4.59605 15.9412,-17.14562 l -0.059,-8.29776 2.7627,2.64685 c 4.0533,3.88335 5.855,8.4411 5.855,14.81185 0,6.42557 -1.6164,10.20721 -5.9056,13.81632 -3.9508,3.32432 -9.9246,4.50632 -25.7304,5.0911 -12.6941,0.46965 -13.1187,0.41974 -12.621,-1.48366 z m 223.2569,-39.77076 c 0,-2.36389 1.3628,-6.78834 3.4652,-11.25 3.7687,-7.99781 7.5348,-23.16441 7.5348,-30.3432 0,-5.12493 -0.7373,-5.41808 -7.5,-2.98175 -5.1791,1.86583 -9.9337,1.85844 -11.4909,-0.0179 -3.1092,-3.74636 3.0014,-14.84327 17.3964,-31.5919 8.2783,-9.63184 12.5043,-12.90926 16.6534,-12.91532 3.8549,-0.006 5.6375,2.00533 6.2788,7.08301 0.8183,6.479 -1.0551,8.91325 -6.8596,8.91325 -5.062,0 -9.469,3.2196 -14.5848,10.65512 -2.853,4.14669 -2.8929,4.34488 -0.8756,4.34488 1.1626,0 2.9225,0.4328 3.9109,0.96178 5.5389,2.96433 8.3083,25.63492 4.5486,37.23559 -3.3803,10.42988 -12.6812,23.80265 -16.5551,23.80265 -1.5672,0 -1.9221,-0.71932 -1.9221,-3.89621 z m -305.252,-51.53054 c -10.0346,-3.58099 -14.8714,-11.09384 -15.5574,-24.16483 -0.4706,-8.96443 1.067,-15.46646 5.4847,-23.19316 l 2.4498,-4.28474 -2.8126,0.6139 c -5.2086,1.13692 -16.7871,7.3013 -19.9881,10.64168 -1.7466,1.82265 -4.3647,5.5639 -5.818,8.3139 l -2.6424,5 0.5493,-4.7532 c 0.7183,-6.2154 3.376,-11.25291 8.7274,-16.54227 15.0136,-14.83959 41.5236,-14.81501 58.4159,0.0541 4.9263,4.33639 9.443,12.38195 9.3982,16.74133 l -0.026,2.5 -1.2384,-2.22876 c -0.6811,-1.22582 -2.9893,-4.07654 -5.1293,-6.33494 -6.6139,-6.97966 -11.3115,-9.07493 -8.4787,-3.78176 2.1563,4.02906 2.3905,20.48843 0.3892,27.34546 -2.0991,7.19166 -7.1248,12.75507 -12.9945,14.38462 -4.974,1.38089 -6.0771,1.34888 -10.7294,-0.31137 z m 169.2375,-1.29551 c -9.3871,-4.75346 -13.9855,-14.16004 -13.9855,-28.60903 0,-3.42807 0.615,-8.60348 1.3665,-11.50092 l 1.3666,-5.26807 -3.1166,0.64123 c -4.7179,0.97071 -12.734,4.81585 -16.2628,7.80086 -1.7305,1.46381 -4.0926,4.57324 -5.2492,6.90984 l -2.1029,4.24835 -8e-4,-4.28984 c -10e-4,-5.41445 2.6333,-10.54618 8.1667,-15.90941 9.0958,-8.81599 27.6236,-13.74737 43.2062,-11.49983 8.8089,1.27054 19.3881,5.8247 25.6599,11.04616 3.9558,3.29327 8.3786,10.89664 9.3435,16.06251 l 0.6368,3.40959 -2.9486,-4.07043 c -1.6218,-2.23873 -4.5484,-5.34687 -6.5036,-6.90698 -3.4885,-2.78353 -15.7354,-9.5014 -16.2972,-8.9396 -0.1572,0.15722 0.394,2.21262 1.2248,4.56757 1.7734,5.0261 2.0163,19.5744 0.449,26.88265 -1.4192,6.61749 -5.8712,13.42134 -10.0534,15.36419 -6.5129,3.02563 -9.0249,3.03594 -14.8994,0.0612 z m 70.1108,-65.40521 c -6.1863,-5.50267 -15.2854,-9.55565 -28.361,-12.63276 -9.2422,-2.17499 -13.5414,-2.6339 -24.2353,-2.58704 -14.8666,0.0651 -25.3917,1.99416 -45.6533,8.36728 -20.0765,6.31491 -23.3483,5.51726 -23.3442,-5.6914 0,-9.58523 1.8015,-11.78245 15.2588,-18.64635 19.4666,-9.92896 40.4942,-15.77684 57.2387,-15.91845 6.9129,-0.0585 9.6724,0.40414 14.7788,2.47754 13.3932,5.43815 22.741,12.4245 29.7315,22.22086 6.5416,9.16728 9.667,16.52852 9.296,21.89547 l -0.3063,4.43194 z m -303.1118,-2.39124 c -3.0562,-3.68245 1.4605,-20.1363 7.4475,-27.1308 6.627,-7.74211 21.0973,-13.30536 34.687,-13.33571 19.6177,-0.0438 47.5711,9.38189 63.631,21.45593 6.6383,4.99069 7.7399,7.74749 5.133,12.84503 -3.2215,6.29933 -7.429,6.88187 -22.8031,3.1572 -18.7303,-4.53778 -36.876,-7.47294 -46.199,-7.47294 -13.6455,0 -28.4706,4.01134 -36.8337,9.96639 -3.4193,2.43478 -3.4654,2.43947 -5.0627,0.5149 z m -18.9595,129.98147 c -1.1547,-9.15936 -2.366,-22.57299 -2.6918,-29.80807 -0.4747,-10.54095 -0.9417,-13.55207 -2.35,-15.15469 -2.3322,-2.65405 -5.4059,-8.87342 -9.0067,-18.22444 -1.6217,-4.21149 -4.2318,-9.25888 -5.8002,-11.21641 -4.1945,-5.23505 -5.0001,-7.13207 -5.3554,-12.61089 -0.2851,-4.39566 -0.085,-4.98193 1.7912,-5.24974 2.7219,-0.38853 7.754,3.85946 10.8471,9.15688 1.331,2.27953 3.7879,8.1946 5.4598,13.1446 l 3.0399,9 -0.046,-8 c -0.025,-4.4 -0.5895,-13.67418 -1.2535,-20.6093 -1.0685,-11.16214 -1.518,-13.01689 -3.9159,-16.16072 -3.7541,-4.92195 -10.4431,-7.43609 -15.6407,-5.87883 -4.7634,1.42713 -8.6909,4.45216 -10.6174,8.17772 -0.8113,1.56875 -2.0184,7.1543 -2.6825,12.41234 -4.2943,34.00034 16.8202,96.57965 36.681,108.71547 2.4988,1.52685 3.07,1.59571 3.3286,0.4013 0.1716,-0.79301 -0.6326,-8.93586 -1.7872,-18.09522 z m 391.7349,-225.97744 c -7.4073,-2.72076 -19.4389,-9.62584 -28.7316,-16.48948 -5.2095,-3.84771 -9.6993,-6.99584 -9.9775,-6.99584 -0.2781,0 2.1842,2.53374 5.4718,5.63053 9.3442,8.80191 21.589,16.32447 29.9774,18.41655 5.0666,1.2636 7.2195,0.89261 3.2599,-0.56176 z m 0.1319,-36.92691 c -0.8885,-0.8885 -17.7105,-7.8657 -29.3918,-12.19076 -6.6,-2.44368 -13.8,-5.36441 -16,-6.49051 l -4,-2.04746 2.5,2.09834 c 4.308,3.61581 16.2193,9.06992 30.6244,14.02262 12.8923,4.43259 17.3568,5.69716 16.2674,4.60777 z m -278.8918,-38.95528 c 0,-0.21828 -4.5121,-3.40072 -10.0269,-7.07208 -18.7861,-12.50636 -45.1956,-23.28716 -62.7876,-25.63087 -10.2625,-1.36723 -27.3556,-0.62504 -35.1855,1.52776 -3.025,0.83171 -4.15,1.29323 -2.5,1.02558 14.6919,-2.38319 33.9749,-1.30927 48.4432,2.69792 15.6586,4.33685 43.7159,16.44019 54.9646,23.71058 6.3701,4.11714 7.0922,4.49808 7.0922,3.74111 z m -26.1752,-14.62943 c -10.9604,-5.65889 -30.4493,-12.86856 -41.9378,-15.51434 -5.868,-1.3514 -5.9897,-1.42983 -1.4982,-0.96525 6.8507,0.70861 27.1817,7.67672 39.3612,13.49042 5.6375,2.69097 10.25,5.14531 10.25,5.45407 0,0.75292 0.2524,0.85366 -6.1752,-2.4649 z m -54.5748,-17.66303 c 0.9625,-0.25152 2.5375,-0.25152 3.5,0 0.9625,0.25153 0.175,0.45733 -1.75,0.45733 -1.925,0 -2.7125,-0.2058 -1.75,-0.45733 z m 189.8536,12.73681 c -0.9846,-4.59112 -5.4257,-14.79101 -6.9872,-16.04748 -0.3418,-0.275 -2.508,-2.975 -4.8138,-6 -11.186,-14.67497 -27.8944,-27.18477 -44.8026,-33.54416 -3.3,-1.24118 -7.8,-2.94758 -10,-3.792 -2.2,-0.84442 -7.375,-2.45869 -11.5,-3.58726 l -7.5,-2.05196 5.5,0.43188 5.5,0.43187 -6.5,-1.44526 c -3.575,-0.7949 -8.75,-1.23574 -11.5,-0.97965 -3.0303,0.28219 -4.2277,0.14991 -3.0397,-0.33578 2.8419,-1.16178 -8.7934,-1.97789 -27.4603,-1.92608 l -15.5,0.043 15.0911,0.77602 c 8.3002,0.42681 18.3166,1.27646 22.2588,1.88812 3.9422,0.61165 8.8512,0.93958 10.9089,0.72874 2.0577,-0.21084 2.867,-0.17287 1.7986,0.0844 -1.0691,0.25741 3.6523,1.91771 10.5,3.6924 6.8434,1.77358 13.3474,3.71412 14.4533,4.31232 1.1059,0.59819 4.6159,2.00327 7.8,3.12239 8.007,2.81424 17.6294,8.35538 24.6379,14.18788 5.9665,4.96539 16.2216,15.28372 19.9323,20.05519 2.9633,3.81039 8.6334,15.69218 10.1104,21.18663 1.6802,6.24966 2.5178,5.32243 1.1123,-1.2312 z m 40.0481,-11.94548 c 0.7476,-5.35628 0.7479,-9.66988 10e-4,-14.602 l -1.0598,-7 0.3809,7 0.3809,7 -1.9522,-5.9643 c -1.0736,-3.28036 -1.7211,-6.56623 -1.4388,-7.30194 0.2823,-0.7357 0.1009,-1.08273 -0.4032,-0.77118 -0.5041,0.31156 -1.2336,-0.45257 -1.621,-1.69806 -1.457,-4.68372 -10.7239,-22.46608 -14.3576,-27.55101 -5.2918,-7.40533 -9.2749,-11.35347 -10.8457,-10.7507 -0.7371,0.28286 -1.0967,0.12042 -0.7992,-0.36096 0.745,-1.20556 -0.8245,-2.348 -8.9371,-6.5051 -9.0093,-4.61661 -10.7049,-4.61961 -3.0525,-0.005 8.8608,5.34293 16.47,11.62385 21.8716,18.05362 8.5586,10.18762 20.681,38.20714 20.681,47.80135 0,2.60465 -1.3356,8.32341 -4.4501,19.05368 -0.3193,1.1 0.5718,-0.4291 1.9802,-3.398 1.4083,-2.9689 3.0381,-8.8189 3.6216,-13 z m -48.0023,-9.72363 c -4.3435,-6.50146 -16.6432,-18.78024 -25.1494,-25.10666 -5.7624,-4.28575 -26.7164,-15.2751 -29.1104,-15.26703 -0.7643,0.003 4.0104,2.63883 10.6104,5.85834 6.6,3.21951 14.925,8.02362 18.5,10.67581 8.4013,6.23264 21.6862,19.65041 25.4368,25.69111 1.6152,2.60146 3.0949,4.57173 3.2883,4.37837 0.1933,-0.19336 -1.4157,-2.99684 -3.5757,-6.22994 z m 46.5337,-14.56587 c -0.3192,-0.79773 -0.5561,-0.56078 -0.6041,0.60417 -0.043,1.05416 0.1929,1.64479 0.5252,1.3125 0.3323,-0.3323 0.3678,-1.1948 0.079,-1.91667 z m -3.7323,-9.55375 c -3.9942,-7.07736 -12.7615,-19.58852 -16.9994,-24.25875 l -3.1761,-3.5 2.6122,3.5 c 6.4238,8.60714 16.4902,24.05079 18.1944,27.91342 1.0277,2.32936 2.0318,3.74568 2.2312,3.14738 0.1994,-0.5983 -1.0886,-3.65922 -2.8623,-6.80205 z m -101.9508,-16.75875 c -1.925,-0.74131 -4.4,-1.3349 -5.5,-1.31907 -1.1,0.0158 -0.2,0.62201 2,1.34707 5.2459,1.7289 8.0049,1.70683 3.5,-0.028 z"
       id="path300" /></g></svg>
